<svg width="500" height="494" viewBox="0 0 500 494" fill="none" xmlns="http://www.w3.org/2000/svg">
<path d="M125.801 120.035C163.157 114.074 205.697 110.893 250 110.893C290.545 110.893 329.608 113.553 364.567 118.569C364.559 118.032 364.551 117.495 364.527 116.958C363.601 85.7961 350.521 56.2326 328.085 34.5864C305.649 12.9403 275.636 0.928793 244.46 1.11925C213.285 1.30971 183.421 13.687 161.251 35.6056C139.081 57.5243 126.363 87.2454 125.817 118.417C125.809 118.961 125.801 119.498 125.801 120.035Z" fill="#63FF85"/>
<g opacity="0.1">
<path opacity="0.1" d="M229.527 1.07478C246.108 -1.16485 262.974 0.104508 279.033 4.80058C295.092 9.49665 309.986 17.5146 322.748 28.3349C335.51 39.1552 345.856 52.5362 353.115 67.6109C360.375 82.6855 364.386 99.1173 364.888 115.841C364.913 116.378 364.92 116.915 364.928 117.452C354.542 115.962 343.787 114.685 332.745 113.618C331.394 85.7569 320.332 59.2474 301.478 38.6898C282.624 18.1323 257.168 4.82423 229.527 1.07478V1.07478Z" fill="white"/>
</g>
<path d="M73.5736 129.506C90.7693 124.845 108.211 121.143 125.817 118.417C154.675 113.945 183.767 111.149 212.949 110.043C225.104 109.547 237.484 109.29 250 109.29C259.92 109.29 269.76 109.45 279.463 109.771C307.928 110.612 336.325 113.011 364.527 116.958C385.404 119.833 406.078 124.024 426.426 129.506C473.87 142.623 500 160.204 500 179.002C500 197.8 473.87 215.38 426.426 228.497C393.061 237.728 351.923 244.018 307.099 246.902C288.598 248.104 269.471 248.713 250 248.713C230.465 248.713 211.274 248.096 192.716 246.894C151.923 244.258 114.183 238.801 82.5962 230.869C82.4279 230.821 82.2676 230.78 82.0993 230.74C79.9678 230.212 77.8687 229.659 75.7931 229.106C75.0482 228.897 74.3111 228.697 73.5736 228.497C73.5322 228.48 73.4894 228.466 73.4456 228.457C72.7402 228.264 72.0434 228.064 71.3462 227.872C69.9518 227.471 68.5738 227.079 67.2197 226.67C67.1555 226.654 67.0995 226.638 67.0432 226.622C65.8655 226.269 64.7113 225.917 63.5658 225.564C62.6283 225.268 61.6987 224.979 60.7773 224.683C60.104 224.466 59.4389 224.25 58.7819 224.034C58.3011 223.873 57.8285 223.721 57.3637 223.561C56.7306 223.353 56.0976 223.136 55.4727 222.92C55.2083 222.832 54.9438 222.744 54.6875 222.647C54.0865 222.447 53.5016 222.239 52.9167 222.03C52.2837 221.806 51.6506 221.574 51.0258 221.349C50.5046 221.165 49.9839 220.973 49.4713 220.78C49.0387 220.612 48.6137 220.452 48.181 220.292C47.0033 219.851 45.8491 219.394 44.7114 218.946C44.1425 218.713 43.5736 218.489 43.013 218.256C42.4601 218.032 41.8991 217.8 41.3541 217.567C40.4569 217.191 39.5756 216.814 38.71 216.438C38.2933 216.245 37.8684 216.061 37.4599 215.885C37.1473 215.74 36.843 215.604 36.5303 215.46C36.3061 215.364 36.0816 215.26 35.8652 215.156C35.0561 214.787 34.2548 214.41 33.4696 214.034C30.4565 212.591 27.6441 211.117 25.0322 209.611C8.64587 200.228 1.90735e-06 189.819 1.90735e-06 179.002C4.99843e-05 160.204 26.1297 142.623 73.5736 129.506ZM74.0063 226.958C107.412 236.197 148.662 242.487 193.606 245.348C211.883 246.51 230.777 247.111 250 247.111C269.159 247.111 287.989 246.518 306.21 245.356C351.226 242.503 392.54 236.213 425.994 226.958C472.684 214.042 498.397 197.014 498.397 179.002C498.395 177.41 498.196 175.825 497.804 174.282C493.718 158.032 468.582 142.824 425.994 131.045C405.799 125.605 385.284 121.438 364.567 118.569C336.195 114.6 307.627 112.192 278.991 111.357C269.439 111.045 259.775 110.89 250 110.893C237.652 110.893 225.441 111.141 213.438 111.622C184.087 112.718 154.825 115.527 125.801 120.035C108.347 122.749 91.0555 126.425 74.0063 131.045C31.4261 142.824 6.29797 158.024 2.20353 174.266C1.80584 175.813 1.60394 177.404 1.60257 179.002C1.60257 197.014 27.3156 214.042 74.0063 226.958V226.958Z" fill="#C300FF"/>
<path d="M0.45657 179.731C0.45657 190.436 9.27889 200.564 25.0322 209.611C27.652 211.117 30.4726 212.591 33.4695 214.034C34.2548 214.41 35.0561 214.787 35.8652 215.156C36.0815 215.26 36.3061 215.364 36.5303 215.46C36.8429 215.604 37.1473 215.74 37.4599 215.885C37.8684 216.061 38.2932 216.245 38.71 216.438C39.5754 216.814 40.4568 217.191 41.354 217.567C41.8991 217.8 42.4601 218.032 43.0129 218.256C43.5736 218.489 44.1425 218.713 44.7114 218.946C45.8491 219.394 47.0033 219.851 48.181 220.292C48.6137 220.452 49.0386 220.612 49.4713 220.781C49.9839 220.973 50.5046 221.165 51.0258 221.349C51.6506 221.574 52.2836 221.806 52.9167 222.031C53.5016 222.239 54.0865 222.447 54.6875 222.647C54.9437 222.744 55.2082 222.832 55.4727 222.92C56.0975 223.136 56.7306 223.353 57.3636 223.561C57.8284 223.721 58.3011 223.873 58.7819 224.034C59.4392 224.25 60.1043 224.466 60.7773 224.683C61.6987 224.979 62.6282 225.268 63.5657 225.564C64.7113 225.917 65.8655 226.269 67.0432 226.622C67.0995 226.638 67.1555 226.654 67.2196 226.67C68.5738 227.079 69.9517 227.471 71.3462 227.872C72.0434 228.064 72.7402 228.264 73.4456 228.457C73.4893 228.466 73.5321 228.48 73.5736 228.497C74.3111 228.697 75.0482 228.897 75.7931 229.106C77.8605 229.651 79.9678 230.204 82.0993 230.74C82.2676 230.781 82.428 230.821 82.5962 230.869C113.325 238.545 151.026 244.138 192.748 246.838C211.026 248.016 230.08 248.641 249.655 248.641C269.407 248.641 288.622 248.008 307.043 246.806C417.011 239.635 498.854 212.327 498.854 179.731C498.845 177.747 498.543 175.776 497.957 173.881C497.909 174.018 497.861 174.146 497.804 174.282C486.37 204.314 405.224 228.585 299.936 234.506C283.806 235.42 267.099 235.893 250 235.893C232.828 235.893 216.058 235.412 199.864 234.498C94.6636 228.553 13.5975 204.274 2.20351 174.266C2.01101 173.785 1.84277 173.305 1.69879 172.824C0.886383 175.036 0.466029 177.374 0.45657 179.731V179.731Z" fill="#C300FF"/>
<path d="M426.547 171.106C439.882 171.106 454.055 168.237 454.055 162.919C454.055 157.602 439.882 154.733 426.547 154.733C413.211 154.733 399.038 157.602 399.038 162.919C399.038 168.237 413.211 171.106 426.547 171.106ZM426.547 156.335C441.813 156.335 452.453 159.805 452.453 162.919C452.453 166.033 441.813 169.503 426.547 169.503C411.28 169.503 400.641 166.033 400.641 162.919C400.641 159.805 411.28 156.335 426.547 156.335V156.335Z" fill="#C300FF"/>
<path d="M369.656 208.766C382.991 208.766 397.165 205.897 397.165 200.58C397.165 195.262 382.991 192.393 369.656 192.393C356.32 192.393 342.147 195.262 342.147 200.58C342.147 205.897 356.32 208.766 369.656 208.766ZM369.656 193.996C384.923 193.996 395.562 197.466 395.562 200.58C395.562 203.694 384.923 207.164 369.656 207.164C354.389 207.164 343.75 203.694 343.75 200.58C343.75 197.466 354.389 193.996 369.656 193.996V193.996Z" fill="#C300FF"/>
<path d="M73.9827 171.106C87.3181 171.106 101.491 168.237 101.491 162.919C101.491 157.602 87.3181 154.733 73.9827 154.733C60.6472 154.733 46.4741 157.602 46.4741 162.919C46.4741 168.237 60.6472 171.106 73.9827 171.106ZM73.9827 156.335C89.2496 156.335 99.8886 159.805 99.8886 162.919C99.8886 166.033 89.2496 169.503 73.9827 169.503C58.7159 169.503 48.0766 166.033 48.0766 162.919C48.0766 159.805 58.7159 156.335 73.9827 156.335V156.335Z" fill="#C300FF"/>
<path d="M130.874 208.766C144.209 208.766 158.382 205.897 158.382 200.58C158.382 195.262 144.209 192.393 130.874 192.393C117.538 192.393 103.365 195.262 103.365 200.58C103.365 205.897 117.538 208.766 130.874 208.766ZM130.874 193.996C146.141 193.996 156.78 197.466 156.78 200.58C156.78 203.694 146.141 207.164 130.874 207.164C115.607 207.164 104.968 203.694 104.968 200.58C104.968 197.466 115.607 193.996 130.874 193.996V193.996Z" fill="#C300FF"/>
<path d="M250.265 226.394C263.6 226.394 277.773 223.525 277.773 218.208C277.773 212.89 263.6 210.021 250.265 210.021C236.929 210.021 222.756 212.89 222.756 218.208C222.756 223.525 236.929 226.394 250.265 226.394ZM250.265 211.624C265.532 211.624 276.171 215.094 276.171 218.208C276.171 221.322 265.532 224.792 250.265 224.792C234.998 224.792 224.359 221.322 224.359 218.208C224.359 215.094 234.998 211.624 250.265 211.624V211.624Z" fill="#C300FF"/>
<path d="M229.986 394.805C211.394 394.805 196.322 379.733 196.322 361.141C196.322 342.549 211.394 327.477 229.986 327.477C248.578 327.477 263.649 342.549 263.649 361.141C263.649 379.733 248.578 394.805 229.986 394.805Z" fill="#E5E93F"/>
<path d="M242.787 383.259L259.17 391.463L254.591 400.608L238.207 392.403L242.787 383.259Z" fill="#E5E93F"/>
<path d="M252.432 399.68C251.46 398.206 253.858 394.911 257.787 392.32C261.717 389.729 265.69 388.823 266.662 390.297C267.633 391.77 265.235 395.065 261.306 397.656C257.376 400.247 253.403 401.153 252.432 399.68Z" fill="#E5E93F"/>
<path d="M217.184 383.259L221.764 392.403L205.38 400.608L200.801 391.463L217.184 383.259Z" fill="#E5E93F"/>
<path d="M198.666 397.656C194.736 395.065 192.338 391.77 193.31 390.297C194.281 388.823 198.255 389.729 202.184 392.32C206.114 394.911 208.512 398.206 207.54 399.68C206.568 401.153 202.595 400.247 198.666 397.656Z" fill="#E5E93F"/>
<path d="M232.343 364.412C225.989 364.412 220.837 359.261 220.837 352.907C220.837 346.553 225.989 341.402 232.343 341.402C238.697 341.402 243.848 346.553 243.848 352.907C243.848 359.261 238.697 364.412 232.343 364.412Z" fill="white"/>
<path d="M229.544 350.701C228.052 349.21 228.061 346.783 229.563 345.281C231.065 343.779 233.492 343.77 234.983 345.262C236.475 346.753 236.466 349.18 234.964 350.682C233.462 352.184 231.035 352.193 229.544 350.701Z" fill="#C300FF"/>
<path d="M203.43 324.519C202.923 312.056 213.665 301.5 227.421 300.941C241.177 300.382 252.739 310.032 253.245 322.495C253.751 334.958 244.189 337.79 230.433 338.348C216.677 338.907 203.936 336.982 203.43 324.519Z" fill="#63FF85"/>
<path d="M184.025 378.769C181.811 376.868 184.924 369.609 190.979 362.555C197.035 355.502 203.738 351.325 205.953 353.226C208.167 355.127 205.053 362.386 198.998 369.439C192.943 376.493 186.239 380.67 184.025 378.769Z" fill="#E5E93F"/>
<path d="M260.879 369.439C254.824 362.386 251.71 355.127 253.924 353.226C256.139 351.325 262.842 355.502 268.898 362.556C274.953 369.609 278.066 376.868 275.852 378.769C273.638 380.67 266.934 376.493 260.879 369.439Z" fill="#E5E93F"/>
<path d="M220.74 374.408C220.376 376.409 220.821 378.473 221.979 380.146C223.137 381.819 224.911 382.963 226.913 383.328C228.914 383.692 230.978 383.246 232.651 382.089C234.324 380.931 235.468 379.157 235.833 377.155L235.835 377.14C236.59 372.972 233.367 371.497 229.199 370.742C225.03 369.988 221.495 370.239 220.74 374.408Z" fill="white"/>
<path d="M286.859 396.95C287.284 396.95 287.691 396.782 287.992 396.481C288.293 396.18 288.461 395.773 288.461 395.348V300.797C288.461 300.371 288.293 299.964 287.992 299.663C287.692 299.363 287.284 299.194 286.859 299.194C286.434 299.194 286.026 299.363 285.726 299.663C285.425 299.964 285.256 300.371 285.256 300.797V395.348C285.256 395.773 285.425 396.18 285.726 396.481C286.026 396.782 286.434 396.95 286.859 396.95Z" fill="#A5FCEC"/>
<path d="M310.897 481.886C311.322 481.886 311.73 481.717 312.031 481.417C312.331 481.116 312.5 480.709 312.5 480.284V411.373C312.5 410.948 312.331 410.541 312.031 410.24C311.73 409.94 311.322 409.771 310.897 409.771C310.472 409.771 310.065 409.94 309.764 410.24C309.464 410.541 309.295 410.948 309.295 411.373V480.284C309.295 480.709 309.464 481.116 309.764 481.417C310.065 481.717 310.472 481.886 310.897 481.886V481.886Z" fill="#A5FCEC"/>
<path d="M249.199 424.995C249.624 424.995 250.031 424.826 250.332 424.526C250.632 424.225 250.801 423.818 250.801 423.393V328.841C250.801 328.416 250.632 328.009 250.332 327.708C250.031 327.408 249.624 327.239 249.199 327.239C248.774 327.239 248.366 327.408 248.066 327.708C247.765 328.009 247.596 328.416 247.596 328.841V423.393C247.596 423.818 247.765 424.225 248.066 424.526C248.366 424.826 248.774 424.995 249.199 424.995Z" fill="#A5FCEC"/>
<path d="M272.436 493.104C272.861 493.104 273.269 492.935 273.569 492.635C273.87 492.334 274.039 491.927 274.039 491.502V453.04C274.039 452.615 273.87 452.207 273.569 451.907C273.269 451.606 272.861 451.438 272.436 451.438C272.011 451.438 271.603 451.606 271.303 451.907C271.002 452.207 270.833 452.615 270.833 453.04V491.502C270.833 491.927 271.002 492.334 271.303 492.635C271.603 492.935 272.011 493.104 272.436 493.104V493.104Z" fill="#A5FCEC"/>
<path d="M239.583 295.989C240.008 295.989 240.416 295.82 240.717 295.519C241.017 295.219 241.186 294.811 241.186 294.386V255.925C241.186 255.5 241.017 255.092 240.717 254.792C240.416 254.491 240.008 254.322 239.583 254.322C239.158 254.322 238.751 254.491 238.45 254.792C238.15 255.092 237.981 255.5 237.981 255.925V294.386C237.981 294.811 238.15 295.219 238.45 295.519C238.751 295.82 239.158 295.989 239.583 295.989V295.989Z" fill="#A5FCEC"/>
<path d="M319.711 312.816C320.136 312.816 320.544 312.647 320.845 312.346C321.145 312.046 321.314 311.638 321.314 311.213V272.752C321.314 272.327 321.145 271.919 320.845 271.618C320.544 271.318 320.136 271.149 319.711 271.149C319.286 271.149 318.879 271.318 318.578 271.618C318.278 271.919 318.109 272.327 318.109 272.752V311.213C318.109 311.638 318.278 312.046 318.578 312.346C318.879 312.647 319.286 312.816 319.711 312.816V312.816Z" fill="#A5FCEC"/>
<path d="M180.289 316.822C180.714 316.822 181.121 316.653 181.422 316.353C181.722 316.052 181.891 315.645 181.891 315.22V276.758C181.891 276.333 181.722 275.925 181.422 275.625C181.121 275.324 180.714 275.155 180.289 275.155C179.864 275.155 179.456 275.324 179.155 275.625C178.855 275.925 178.686 276.333 178.686 276.758V315.22C178.686 315.645 178.855 316.052 179.155 316.353C179.456 316.653 179.864 316.822 180.289 316.822Z" fill="#A5FCEC"/>
<path d="M183.494 437.014C183.919 437.014 184.326 436.846 184.627 436.545C184.927 436.245 185.096 435.837 185.096 435.412V388.938C185.096 388.512 184.927 388.105 184.627 387.804C184.326 387.504 183.919 387.335 183.494 387.335C183.069 387.335 182.661 387.504 182.36 387.804C182.06 388.105 181.891 388.512 181.891 388.938V435.412C181.891 435.837 182.06 436.245 182.36 436.545C182.661 436.846 183.069 437.014 183.494 437.014Z" fill="#A5FCEC"/>
<path d="M215.545 477.88C215.97 477.88 216.378 477.711 216.678 477.41C216.979 477.11 217.147 476.702 217.147 476.277V407.367C217.147 406.942 216.979 406.534 216.678 406.234C216.378 405.933 215.97 405.764 215.545 405.764C215.12 405.764 214.712 405.933 214.412 406.234C214.111 406.534 213.942 406.942 213.942 407.367V476.277C213.942 476.702 214.111 477.11 214.412 477.41C214.712 477.711 215.12 477.88 215.545 477.88Z" fill="#A5FCEC"/>
<path d="M209.135 360.091C209.56 360.091 209.967 359.923 210.268 359.622C210.568 359.321 210.737 358.914 210.737 358.489V263.938C210.737 263.512 210.568 263.105 210.268 262.804C209.967 262.504 209.56 262.335 209.135 262.335C208.71 262.335 208.302 262.504 208.002 262.804C207.701 263.105 207.532 263.512 207.532 263.938V358.489C207.532 358.914 207.701 359.321 208.002 359.622C208.302 359.923 208.71 360.091 209.135 360.091Z" fill="#A5FCEC"/>
</svg>
