<svg width="326" height="353" viewBox="0 0 326 353" fill="none" xmlns="http://www.w3.org/2000/svg">
<path d="M325.951 11C325.949 8.08315 324.79 5.28628 322.727 3.22375C320.665 1.16123 317.868 0.00174059 314.951 0H19.9511C17.0441 0.00571161 14.257 1.15962 12.1968 3.21048C10.1366 5.26134 8.97002 8.04307 8.95106 10.95C-1.00894 105.92 -2.65894 199.21 4.01106 289C4.82106 300.11 5.76772 311.163 6.85106 322.16C7.43106 328.05 8.04773 333.923 8.70106 339.78C8.78106 340.54 8.86106 341.3 8.95106 342.06C8.97209 344.965 10.1397 347.745 12.1997 349.794C14.2598 351.842 17.0456 352.995 19.9511 353H314.951C317.868 352.998 320.665 351.839 322.727 349.776C324.79 347.714 325.949 344.917 325.951 342V341.89C314.021 236.12 314.021 124.83 325.951 11.1V11Z" fill="white"/>
<path d="M325.951 11C325.949 8.08315 324.79 5.28628 322.727 3.22375C320.665 1.16123 317.868 0.00174059 314.951 0H19.9511C17.0441 0.00571161 14.257 1.15962 12.1968 3.21048C10.1366 5.26134 8.97002 8.04307 8.95106 10.95C-1.00894 105.92 -2.65894 199.21 4.01106 289C4.82106 300.11 5.76772 311.163 6.85106 322.16C7.43106 328.05 8.04773 333.923 8.70106 339.78C8.78106 340.54 8.86106 341.3 8.95106 342.06C8.97209 344.965 10.1397 347.745 12.1997 349.794C14.2598 351.842 17.0456 352.995 19.9511 353H314.951C317.868 352.998 320.665 351.839 322.727 349.776C324.79 347.714 325.949 344.917 325.951 342V341.89C314.021 236.12 314.021 124.83 325.951 11.1V11ZM323.951 342.06C323.933 344.436 322.977 346.709 321.292 348.383C319.606 350.057 317.327 350.998 314.951 351H19.9511C17.5652 350.996 15.2781 350.047 13.591 348.36C11.904 346.673 10.9546 344.386 10.9511 342V341.89C10.8811 341.25 10.811 340.6 10.741 339.96C10.051 333.84 9.40772 327.703 8.81105 321.55C7.76105 310.76 6.83107 299.91 6.02107 289C-0.648929 199.26 0.991063 106.03 10.9511 11.1V11C10.9547 8.61415 11.904 6.32705 13.591 4.64C15.2781 2.95295 17.5652 2.00359 19.9511 2H314.951C317.329 2.00077 319.61 2.94238 321.297 4.61923C322.983 6.29609 323.937 8.57197 323.951 10.95C312.021 124.77 312.021 236.18 323.951 342.06Z" fill="#E4E4E4"/>
<path d="M40.285 102.29C39.5261 102.292 38.799 102.595 38.2631 103.132C37.7272 103.67 37.4263 104.398 37.4263 105.157C37.4263 105.916 37.7272 106.643 38.2631 107.181C38.799 107.718 39.5261 108.021 40.285 108.023H280.016C280.775 108.021 281.502 107.718 282.038 107.181C282.574 106.643 282.875 105.916 282.875 105.157C282.875 104.398 282.574 103.67 282.038 103.132C281.502 102.595 280.775 102.292 280.016 102.29H40.285Z" fill="#E6E6E6"/>
<path d="M40.2849 119.49C39.5256 119.491 38.7979 119.794 38.2615 120.331C37.7251 120.869 37.4238 121.597 37.4238 122.356C37.4238 123.116 37.7251 123.844 38.2615 124.381C38.7979 124.919 39.5256 125.221 40.2849 125.223H203.03C203.789 125.221 204.517 124.919 205.053 124.381C205.589 123.844 205.891 123.116 205.891 122.356C205.891 121.597 205.589 120.869 205.053 120.331C204.517 119.794 203.789 119.491 203.03 119.49H40.2849Z" fill="#E6E6E6"/>
<path d="M40.2849 136.301C39.5256 136.302 38.7979 136.605 38.2615 137.142C37.7251 137.679 37.4238 138.408 37.4238 139.167C37.4238 139.926 37.7251 140.654 38.2615 141.192C38.7979 141.729 39.5256 142.032 40.2849 142.033H280.016C280.775 142.032 281.503 141.729 282.039 141.192C282.576 140.654 282.877 139.926 282.877 139.167C282.877 138.408 282.576 137.679 282.039 137.142C281.503 136.605 280.775 136.302 280.016 136.301H40.2849Z" fill="#E6E6E6"/>
<path d="M40.285 153.5C39.5261 153.502 38.799 153.805 38.2631 154.342C37.7272 154.88 37.4263 155.608 37.4263 156.367C37.4263 157.125 37.7272 157.853 38.2631 158.391C38.799 158.928 39.5261 159.231 40.285 159.233H203.03C203.789 159.231 204.516 158.928 205.052 158.391C205.588 157.853 205.888 157.125 205.888 156.367C205.888 155.608 205.588 154.88 205.052 154.342C204.516 153.805 203.789 153.502 203.03 153.5H40.285Z" fill="#E6E6E6"/>
<path d="M40.285 199.29C39.5261 199.292 38.799 199.595 38.2631 200.132C37.7272 200.67 37.4263 201.398 37.4263 202.157C37.4263 202.916 37.7272 203.643 38.2631 204.181C38.799 204.718 39.5261 205.021 40.285 205.023H280.016C280.775 205.021 281.502 204.718 282.038 204.181C282.574 203.643 282.875 202.916 282.875 202.157C282.875 201.398 282.574 200.67 282.038 200.132C281.502 199.595 280.775 199.292 280.016 199.29H40.285Z" fill="#E6E6E6"/>
<path d="M40.2849 216.49C39.5256 216.491 38.7979 216.794 38.2615 217.331C37.7251 217.869 37.4238 218.597 37.4238 219.356C37.4238 220.116 37.7251 220.844 38.2615 221.381C38.7979 221.919 39.5256 222.221 40.2849 222.223H203.03C203.789 222.221 204.517 221.919 205.053 221.381C205.589 220.844 205.891 220.116 205.891 219.356C205.891 218.597 205.589 217.869 205.053 217.331C204.517 216.794 203.789 216.491 203.03 216.49H40.2849Z" fill="#E6E6E6"/>
<path d="M40.2849 233.301C39.5256 233.302 38.7979 233.605 38.2615 234.142C37.7251 234.679 37.4238 235.408 37.4238 236.167C37.4238 236.926 37.7251 237.654 38.2615 238.192C38.7979 238.729 39.5256 239.032 40.2849 239.033H280.016C280.775 239.032 281.503 238.729 282.039 238.192C282.576 237.654 282.877 236.926 282.877 236.167C282.877 235.408 282.576 234.679 282.039 234.142C281.503 233.605 280.775 233.302 280.016 233.301H40.2849Z" fill="#E6E6E6"/>
<path d="M40.285 250.5C39.5261 250.502 38.799 250.805 38.2631 251.342C37.7272 251.88 37.4263 252.608 37.4263 253.367C37.4263 254.125 37.7272 254.853 38.2631 255.391C38.799 255.928 39.5261 256.231 40.285 256.233H203.03C203.789 256.231 204.516 255.928 205.052 255.391C205.588 254.853 205.888 254.125 205.888 253.367C205.888 252.608 205.588 251.88 205.052 251.342C204.516 250.805 203.789 250.502 203.03 250.5H40.285Z" fill="#E6E6E6"/>
</svg>
