<svg width="285" height="203" viewBox="0 0 285 203" fill="none" xmlns="http://www.w3.org/2000/svg">
<path d="M92.572 0L50.293 23.132L132.21 77.386L171.397 51.535L92.572 0Z" fill="#3F3D56"/>
<path d="M194.245 73.4929L284.333 131.572L242.496 156.437L152.442 96.3179L194.245 73.4929Z" fill="#3F3D56"/>
<path d="M177.663 44.6675C182.464 47.0052 186.676 50.3955 189.985 54.5861C193.294 58.7767 195.615 63.6596 196.776 68.8715C197.235 70.7682 197.157 72.7553 196.549 74.6096C195.941 76.4639 194.828 78.112 193.335 79.3686L167.29 101.364C165.417 102.942 163.108 103.914 160.67 104.149C158.232 104.384 155.78 103.872 153.639 102.681C143.05 96.8087 126.045 84.4822 133.638 68.8715C134.487 67.1375 135.786 65.663 137.398 64.6015L166.424 45.4074C168.071 44.3149 169.974 43.6718 171.945 43.5421C173.917 43.4123 175.888 43.8002 177.663 44.6675V44.6675Z" fill="#D0CDE1"/>
<path d="M147.694 130.994C160.582 121.398 159.576 98.2344 145.446 79.2566C131.316 60.2787 109.413 52.6732 96.5247 62.2692C83.6364 71.8652 84.6431 95.0289 98.7732 114.007C112.903 132.985 134.806 140.59 147.694 130.994Z" fill="#3F3D56"/>
<path opacity="0.2" d="M135.371 130.507C130.09 134.441 117.531 126.685 106.241 112.928C105.242 111.712 104.253 110.449 103.276 109.139C102.56 108.177 101.871 107.216 101.207 106.254C90.7389 91.1283 86.601 76.2917 92.0077 72.2665C97.4542 68.209 110.633 76.5779 122.186 91.1374C122.831 91.9531 123.47 92.7852 124.103 93.6337C126.289 96.5659 128.311 99.6171 130.16 102.773C137.606 115.555 140.026 127.038 135.371 130.507Z" fill="black"/>
<path d="M130.159 102.773L106.241 112.928L89.128 120.193L86.5972 116.777L101.207 106.254L122.186 91.1375C122.831 91.9532 123.47 92.7852 124.102 93.6337C126.289 96.5659 128.311 99.6171 130.159 102.773V102.773Z" fill="#D0CDE1"/>
<path d="M84.4895 126.019C87.3608 126.019 89.6884 123.692 89.6884 120.82C89.6884 117.949 87.3608 115.621 84.4895 115.621C81.6182 115.621 79.2905 117.949 79.2905 120.82C79.2905 123.692 81.6182 126.019 84.4895 126.019Z" fill="#D0CDE1"/>
<path d="M82.9641 175.739C82.6334 175.437 82.2269 175.23 81.7879 175.139C53.7855 169.354 36.1654 153.231 27.9226 125.851C27.7316 125.219 27.2977 124.688 26.7159 124.376C26.1341 124.064 25.4522 123.995 24.82 124.186C24.1877 124.376 23.6569 124.809 23.3441 125.391C23.0313 125.972 22.9622 126.654 23.1519 127.286C31.8484 156.173 51.2368 173.914 80.78 180.019C81.3144 180.129 81.8703 180.061 82.3621 179.825C82.854 179.588 83.2547 179.197 83.5028 178.711C83.7508 178.225 83.8324 177.671 83.7351 177.134C83.6378 176.597 83.3669 176.107 82.9641 175.739H82.9641Z" fill="#6C63FF"/>
<path d="M89.8552 154.062C89.5246 153.76 89.1181 153.552 88.6789 153.463C67.6828 149.124 54.4717 137.035 48.2909 116.506C48.0998 115.874 47.6657 115.344 47.0841 115.032C46.5024 114.72 45.8207 114.652 45.1887 114.842C44.5567 115.032 44.0259 115.466 43.7131 116.047C43.4003 116.628 43.3309 117.31 43.5202 117.942C50.183 140.073 65.0368 153.665 87.6712 158.342C88.2056 158.452 88.7614 158.384 89.2533 158.148C89.7451 157.912 90.1459 157.52 90.3939 157.034C90.6419 156.548 90.7236 155.994 90.6263 155.458C90.5289 154.921 90.258 154.431 89.8552 154.063V154.062Z" fill="#6C63FF"/>
<path d="M72.7815 197.937C72.4509 197.634 72.0445 197.427 71.6053 197.337C43.6603 191.563 13.1014 163.601 4.8754 136.277C4.68424 135.645 4.25021 135.115 3.66855 134.803C3.08689 134.491 2.4052 134.423 1.77316 134.613C1.14113 134.803 0.610409 135.236 0.297579 135.817C-0.0152515 136.399 -0.0846508 137.08 0.104647 137.713C8.79445 166.578 41.0763 196.117 70.5975 202.216C71.1319 202.327 71.6877 202.259 72.1796 202.022C72.6715 201.786 73.0722 201.395 73.3202 200.909C73.5683 200.423 73.6499 199.869 73.5526 199.332C73.4553 198.795 73.1844 198.305 72.7815 197.937V197.937Z" fill="#6C63FF"/>
</svg>
