<svg width="856" height="631" viewBox="0 0 856 631" fill="none" xmlns="http://www.w3.org/2000/svg">
<path d="M763.402 337.591C759.672 380.671 740.892 422.301 714.102 456.731C712.982 458.171 711.849 459.597 710.702 461.011C708.122 464.191 705.475 467.311 702.762 470.371C699.442 474.141 696.025 477.824 692.512 481.421C689.652 484.381 686.725 487.277 683.732 490.111C681.422 492.321 679.085 494.487 676.722 496.611C648.292 522.301 615.632 543.501 581.982 562.041C516.312 598.211 444.332 625.611 369.462 629.601C294.602 633.581 216.452 612.141 161.552 561.081C87.5621 492.271 66.9121 377.501 96.952 281.031C116.932 216.851 157.712 158.791 213.212 120.871C268.232 83.2807 337.642 66.3607 403.332 77.4208C455.772 45.5507 524.422 44.9408 581.432 68.5308C611.852 81.1208 639.152 99.8408 663.102 122.461C674.07 132.842 684.333 143.943 693.822 155.691C694.792 156.881 695.752 158.081 696.702 159.291C700.682 164.321 704.532 169.454 708.252 174.691C713.592 182.201 718.662 189.877 723.462 197.721C724.782 199.881 726.092 202.051 727.372 204.241C728.232 205.711 729.102 207.191 729.952 208.681C729.971 208.711 729.985 208.745 729.992 208.781C743.302 232.191 754.182 257.171 759.852 283.281C760.852 287.901 761.692 292.541 762.342 297.221V297.231C762.912 301.201 763.342 305.191 763.632 309.201C764.316 318.655 764.239 328.149 763.402 337.591V337.591Z" fill="#3F3D56"/>
<path opacity="0.3" d="M568.044 402.717L419.582 279.039L563.81 407.671C564.089 408.141 564.477 408.538 564.94 408.829C565.404 409.12 565.93 409.296 566.475 409.343C567.02 409.39 567.568 409.306 568.075 409.099C568.581 408.891 569.03 408.566 569.386 408.15C569.741 407.734 569.992 407.239 570.118 406.707C570.245 406.175 570.242 405.62 570.111 405.089C569.979 404.557 569.723 404.065 569.364 403.653C569.004 403.24 568.552 402.92 568.044 402.717V402.717Z" fill="#F0F0F0"/>
<path d="M227.582 339.781C276.735 339.781 316.582 299.934 316.582 250.781C316.582 201.627 276.735 161.781 227.582 161.781C178.429 161.781 138.582 201.627 138.582 250.781C138.582 299.934 178.429 339.781 227.582 339.781Z" fill="#F2F2F2"/>
<path d="M306.582 244.781C306.583 255.418 304.488 265.951 300.418 275.779C296.348 285.607 290.381 294.537 282.859 302.058C275.338 309.58 266.408 315.546 256.58 319.617C246.753 323.687 236.219 325.782 225.582 325.781C216.101 325.775 206.693 324.117 197.782 320.881C183.848 315.805 171.574 307.003 162.296 295.434C153.018 283.866 147.091 269.973 145.161 255.27C143.232 240.566 145.373 225.615 151.352 212.044C157.33 198.473 166.918 186.802 179.07 178.302C191.222 169.803 205.473 164.8 220.271 163.838C235.07 162.876 249.848 165.993 262.998 172.849C276.148 179.705 287.165 190.036 294.85 202.72C302.535 215.403 306.593 229.951 306.582 244.781V244.781Z" fill="white"/>
<path d="M211.582 242.781C225.389 242.781 236.582 231.588 236.582 217.781C236.582 203.974 225.389 192.781 211.582 192.781C197.775 192.781 186.582 203.974 186.582 217.781C186.582 231.588 197.775 242.781 211.582 242.781Z" fill="#E4E4E4"/>
<path d="M303.422 222.31C298.004 224.917 291.828 225.484 286.026 223.907C280.223 222.33 275.184 218.715 271.831 213.724C268.478 208.733 267.036 202.701 267.769 196.733C268.502 190.765 271.361 185.261 275.822 181.23C289.08 191.711 298.73 206.075 303.422 222.31Z" fill="#F2F2F2"/>
<path d="M252.582 280.781C257.553 280.781 261.582 276.751 261.582 271.781C261.582 266.81 257.553 262.781 252.582 262.781C247.611 262.781 243.582 266.81 243.582 271.781C243.582 276.751 247.611 280.781 252.582 280.781Z" fill="#E4E4E4"/>
<path d="M215.582 322.781C215.582 323.571 215.477 324.358 215.272 325.121C209.301 324.374 203.433 322.951 197.782 320.881C198.252 318.709 199.507 316.788 201.308 315.487C203.109 314.185 205.327 313.596 207.536 313.832C209.745 314.067 211.789 315.112 213.275 316.764C214.76 318.416 215.582 320.559 215.582 322.781Z" fill="#F2F2F2"/>
<path d="M162.582 240.781C162.582 245.347 160.846 249.742 157.727 253.077C154.608 256.411 150.338 258.436 145.782 258.741C143.72 246.854 144.321 234.657 147.542 223.031C151.744 223.731 155.561 225.899 158.315 229.149C161.069 232.399 162.581 236.521 162.582 240.781Z" fill="#F2F2F2"/>
<path d="M606.457 212.185C608.501 212.185 610.159 210.528 610.159 208.483C610.159 206.438 608.501 204.781 606.457 204.781C604.412 204.781 602.754 206.438 602.754 208.483C602.754 210.528 604.412 212.185 606.457 212.185Z" fill="#6C63FF"/>
<path d="M572.302 122.112C573.497 122.112 574.465 121.143 574.465 119.948C574.465 118.754 573.497 117.785 572.302 117.785C571.108 117.785 570.139 118.754 570.139 119.948C570.139 121.143 571.108 122.112 572.302 122.112Z" fill="#F0F0F0"/>
<path d="M225.302 546.112C226.497 546.112 227.465 545.143 227.465 543.949C227.465 542.754 226.497 541.786 225.302 541.786C224.108 541.786 223.139 542.754 223.139 543.949C223.139 545.143 224.108 546.112 225.302 546.112Z" fill="#F0F0F0"/>
<path d="M584.581 333.757C585.776 333.757 586.745 332.788 586.745 331.594C586.745 330.399 585.776 329.431 584.581 329.431C583.387 329.431 582.418 330.399 582.418 331.594C582.418 332.788 583.387 333.757 584.581 333.757Z" fill="#F0F0F0"/>
<path d="M305.457 354.185C307.502 354.185 309.159 352.528 309.159 350.483C309.159 348.438 307.502 346.781 305.457 346.781C303.412 346.781 301.754 348.438 301.754 350.483C301.754 352.528 303.412 354.185 305.457 354.185Z" fill="#6C63FF"/>
<path d="M171.457 433.966C181.112 433.966 188.94 426.139 188.94 416.483C188.94 406.827 181.112 399 171.457 399C161.801 399 153.974 406.827 153.974 416.483C153.974 426.139 161.801 433.966 171.457 433.966Z" fill="#6C63FF"/>
<path d="M267.302 438.111C268.497 438.111 269.465 437.143 269.465 435.948C269.465 434.754 268.497 433.785 267.302 433.785C266.108 433.785 265.139 434.754 265.139 435.948C265.139 437.143 266.108 438.111 267.302 438.111Z" fill="#F0F0F0"/>
<path d="M487.302 100.112C488.497 100.112 489.465 99.1431 489.465 97.9485C489.465 96.7538 488.497 95.7854 487.302 95.7854C486.108 95.7854 485.139 96.7538 485.139 97.9485C485.139 99.1431 486.108 100.112 487.302 100.112Z" fill="#F0F0F0"/>
<path d="M358.302 561.112C359.497 561.112 360.465 560.143 360.465 558.949C360.465 557.754 359.497 556.786 358.302 556.786C357.108 556.786 356.139 557.754 356.139 558.949C356.139 560.143 357.108 561.112 358.302 561.112Z" fill="#F0F0F0"/>
<path d="M326.302 120.112C327.497 120.112 328.465 119.143 328.465 117.948C328.465 116.754 327.497 115.785 326.302 115.785C325.108 115.785 324.139 116.754 324.139 117.948C324.139 119.143 325.108 120.112 326.302 120.112Z" fill="#F0F0F0"/>
<path d="M382.302 225.111C383.497 225.111 384.465 224.143 384.465 222.948C384.465 221.754 383.497 220.785 382.302 220.785C381.108 220.785 380.139 221.754 380.139 222.948C380.139 224.143 381.108 225.111 382.302 225.111Z" fill="#F0F0F0"/>
<path d="M296.582 482.757C297.776 482.757 298.745 481.788 298.745 480.594C298.745 479.399 297.776 478.431 296.582 478.431C295.387 478.431 294.418 479.399 294.418 480.594C294.418 481.788 295.387 482.757 296.582 482.757Z" fill="#F0F0F0"/>
<path d="M549.581 496.757C550.776 496.757 551.745 495.789 551.745 494.594C551.745 493.4 550.776 492.431 549.581 492.431C548.387 492.431 547.418 493.4 547.418 494.594C547.418 495.789 548.387 496.757 549.581 496.757Z" fill="#F0F0F0"/>
<path d="M437.582 370.757C438.776 370.757 439.745 369.788 439.745 368.594C439.745 367.399 438.776 366.431 437.582 366.431C436.387 366.431 435.418 367.399 435.418 368.594C435.418 369.788 436.387 370.757 437.582 370.757Z" fill="#F0F0F0"/>
<path d="M494.582 224.757C495.776 224.757 496.745 223.788 496.745 222.594C496.745 221.399 495.776 220.431 494.582 220.431C493.387 220.431 492.418 221.399 492.418 222.594C492.418 223.788 493.387 224.757 494.582 224.757Z" fill="#F0F0F0"/>
<path d="M598.212 296.944C600.581 296.944 602.501 295.023 602.501 292.655C602.501 290.286 600.581 288.366 598.212 288.366C595.844 288.366 593.923 290.286 593.923 292.655C593.923 295.023 595.844 296.944 598.212 296.944Z" fill="#FF6584"/>
<path d="M424.212 154.943C426.581 154.943 428.501 153.023 428.501 150.655C428.501 148.286 426.581 146.366 424.212 146.366C421.844 146.366 419.923 148.286 419.923 150.655C419.923 153.023 421.844 154.943 424.212 154.943Z" fill="#FF6584"/>
<path d="M424.212 449.944C426.581 449.944 428.501 448.023 428.501 445.655C428.501 443.286 426.581 441.366 424.212 441.366C421.844 441.366 419.923 443.286 419.923 445.655C419.923 448.023 421.844 449.944 424.212 449.944Z" fill="#FF6584"/>
<path d="M691.422 470.371C689.751 470.372 688.127 470.918 686.794 471.924C685.46 472.931 684.491 474.344 684.032 475.951C683.83 476.639 683.729 477.353 683.732 478.071V490.111C686.722 487.281 689.649 484.384 692.512 481.421C696.022 477.821 699.439 474.137 702.762 470.371H691.422Z" fill="#6C63FF"/>
<path d="M718.651 532.931C705.739 532.931 691.587 532.443 676.194 531.467C596.581 526.412 493.457 508.834 385.818 481.975C278.181 455.116 178.888 422.181 106.233 389.241C70.8404 373.194 43.6769 358.004 25.4977 344.093C6.25059 329.366 -2.16835 316.529 0.473718 305.94C5.62172 285.312 51.2047 280.798 88.5377 280.645L88.5504 283.645C37.2823 283.855 7.03675 292.032 3.3849 306.667C-1.26696 325.307 36.6715 354.408 107.472 386.508C179.967 419.376 279.077 452.248 386.545 479.065C494.012 505.881 596.946 523.428 676.385 528.473C753.964 533.401 801.128 525.536 805.779 506.895C809.641 491.418 784.181 468.62 734.09 442.697L735.469 440.033C771.866 458.869 814.114 485.884 808.691 507.622C806.048 518.21 792.585 525.586 768.675 529.544C755.046 531.8 738.305 532.931 718.651 532.931Z" fill="#6C63FF"/>
<path d="M240.064 569.356C204.465 569.357 171.37 568.135 141.742 565.67C103.015 562.448 72.3275 557.267 50.5316 550.274C27.4549 542.869 15.2122 533.607 14.1434 522.746C12.0604 501.587 53.4774 482.021 88.5887 469.333L89.6082 472.155C41.3914 489.579 15.6512 507.441 17.1287 522.453C19.0106 541.572 64.5208 556.234 141.991 562.68C221.316 569.281 325.708 566.942 435.938 556.09C546.168 545.242 649.013 527.184 725.529 505.245C800.255 483.819 842.034 460.565 840.152 441.446C838.59 425.572 806.95 412.653 751.06 405.067L751.464 402.094C792.074 407.606 840.943 418.856 843.138 441.152C844.207 452.013 834.004 463.484 812.815 475.246C792.8 486.355 763.711 497.418 726.356 508.128C649.671 530.117 546.636 548.209 436.232 559.077C366.972 565.893 299.987 569.356 240.064 569.356Z" fill="#6C63FF"/>
<path d="M838.457 451.966C848.112 451.966 855.94 444.139 855.94 434.483C855.94 424.827 848.112 417 838.457 417C828.801 417 820.974 424.827 820.974 434.483C820.974 444.139 828.801 451.966 838.457 451.966Z" fill="#6C63FF"/>
<path d="M331.457 34.9661C341.112 34.9661 348.94 27.1387 348.94 17.483C348.94 7.82743 341.112 0 331.457 0C321.801 0 313.974 7.82743 313.974 17.483C313.974 27.1387 321.801 34.9661 331.457 34.9661Z" fill="#E6E6E6"/>
<path d="M19.4567 450.966C29.1123 450.966 36.9397 443.139 36.9397 433.483C36.9397 423.827 29.1123 416 19.4567 416C9.80106 416 1.97363 423.827 1.97363 433.483C1.97363 443.139 9.80106 450.966 19.4567 450.966Z" fill="#E6E6E6"/>
<path d="M127.457 119.185C133.367 119.185 138.159 114.394 138.159 108.483C138.159 102.572 133.367 97.7808 127.457 97.7808C121.546 97.7808 116.754 102.572 116.754 108.483C116.754 114.394 121.546 119.185 127.457 119.185Z" fill="#FF6584"/>
<path d="M77.4567 525.185C83.3675 525.185 88.1591 520.394 88.1591 514.483C88.1591 508.572 83.3675 503.781 77.4567 503.781C71.546 503.781 66.7544 508.572 66.7544 514.483C66.7544 520.394 71.546 525.185 77.4567 525.185Z" fill="#FF6584"/>
<path d="M807.457 350.185C813.367 350.185 818.159 345.394 818.159 339.483C818.159 333.572 813.367 328.781 807.457 328.781C801.546 328.781 796.754 333.572 796.754 339.483C796.754 345.394 801.546 350.185 807.457 350.185Z" fill="#FF6584"/>
<path d="M645.457 615.966C655.112 615.966 662.94 608.139 662.94 598.483C662.94 588.827 655.112 581 645.457 581C635.801 581 627.974 588.827 627.974 598.483C627.974 608.139 635.801 615.966 645.457 615.966Z" fill="#E6E6E6"/>
<path d="M645.798 316.066L651.912 318.167C650.203 319.5 650.182 322.203 651.869 323.836C653.555 325.47 656.643 325.739 658.347 324.402C659.401 325.944 658.785 327.783 658.278 329.406C657.772 331.029 657.539 333.07 659.037 334.311C660.24 335.308 662.126 335.303 663.465 334.679C664.804 334.055 665.721 332.947 666.599 331.869C666.774 334.905 669.656 337.873 673.083 338.545C676.51 339.217 680.091 337.517 681.138 334.72C681.582 337.801 685.12 340.52 688.601 340.458C692.111 340.395 694.701 337.975 696.614 335.534C701.496 329.323 704.437 321.811 705.07 313.938C705.308 310.929 705.198 307.809 704.011 304.859C702.824 301.908 700.428 299.131 697.174 297.814C700.408 300.366 705.583 299.572 708.237 296.992C710.891 294.412 711.569 290.631 711.704 287.005C711.882 282.184 710.948 276.694 706.612 273.336C704.465 271.673 701.758 270.763 699.126 269.892L694.022 268.204C691.962 267.523 689.864 266.833 687.723 266.703C685.583 266.573 683.354 267.084 682.071 268.479C680.918 266.812 679.713 265.093 677.927 263.924C676.141 262.755 673.6 262.286 671.949 263.333C669.849 264.666 670.083 267.673 668.279 269.3C666.543 270.866 663.521 270.68 661.301 271.702C660.371 272.109 659.58 272.777 659.025 273.627C658.469 274.476 658.174 275.468 658.174 276.483C658.22 278.486 659.542 280.536 661.529 281.686C663.27 282.693 665.353 282.995 667.232 283.752C669.111 284.508 670.966 286.084 670.767 287.81C670.528 289.894 667.536 290.616 665.137 290.181C662.738 289.747 660.406 288.606 658.007 288.649C655.177 288.7 652.727 290.627 652.382 293.075C652.037 295.523 653.83 298.254 656.5 299.347C658.682 300.24 661.619 300.363 662.686 302.265C663.813 304.275 661.517 306.329 659.121 306.624C656.724 306.92 654.177 306.225 651.77 306.48C649.325 306.739 647.156 308.03 646.034 309.894C645.481 310.855 645.179 311.939 645.155 313.047C645.131 314.155 645.387 315.251 645.899 316.234" fill="#F78A0A"/>
<path d="M662.738 273.571L660.868 279.297C660.604 280.175 660.061 280.941 659.321 281.481C658.643 281.933 657.923 281.994 657.345 281.648L652.135 278.528C651.153 277.94 650.816 276.358 651.335 274.767L652.368 271.604C652.887 270.013 654.093 268.934 655.233 269.039L661.28 269.594C661.951 269.655 662.496 270.13 662.777 270.895C663.056 271.767 663.042 272.707 662.738 273.571V273.571Z" fill="#010101"/>
<path d="M575.168 247.343C574.034 250.826 579.061 255.588 581.412 256.357L585.669 257.746L589.784 245.139L585.528 243.75C583.176 242.983 576.307 243.862 575.168 247.343Z" fill="#010101"/>
<path d="M595.768 310.746C595.624 310.9 595.444 311.018 595.245 311.089C595.045 311.159 594.832 311.181 594.622 311.151C594.412 311.122 594.213 311.042 594.041 310.919C593.869 310.796 593.729 310.633 593.633 310.444C593.554 310.291 593.507 310.123 593.494 309.95C593.48 309.778 593.501 309.605 593.555 309.441L614.81 244.334C614.864 244.17 614.949 244.018 615.062 243.887C615.174 243.756 615.311 243.648 615.465 243.57C615.619 243.491 615.787 243.444 615.959 243.431C616.131 243.418 616.304 243.438 616.468 243.492C616.799 243.601 617.074 243.836 617.232 244.147C617.39 244.458 617.418 244.819 617.31 245.15L617.31 245.15L596.055 310.257C595.996 310.439 595.898 310.606 595.768 310.746V310.746Z" fill="#010101"/>
<path d="M594.874 243.481L588.799 262.091L651.633 282.604L657.708 263.993L594.874 243.481Z" fill="#E6E6E6"/>
<path d="M494.232 240.761C493.099 244.244 498.125 249.006 500.476 249.775L504.733 251.165L508.849 238.558L504.592 237.168C502.24 236.401 495.372 237.28 494.232 240.761Z" fill="#010101"/>
<path d="M656.506 290.357L654.637 296.084C654.373 296.961 653.83 297.728 653.089 298.268C652.411 298.72 651.691 298.781 651.113 298.435L645.904 295.315C644.921 294.727 644.585 293.145 645.104 291.554L646.137 288.391C646.656 286.8 647.861 285.721 649.002 285.826L655.049 286.381C655.719 286.442 656.265 286.917 656.545 287.682C656.825 288.554 656.811 289.494 656.506 290.357V290.357Z" fill="#010101"/>
<path d="M651.146 308.327L649.276 314.053C649.013 314.931 648.469 315.697 647.729 316.237C647.051 316.689 646.331 316.75 645.753 316.404L640.544 313.284C639.561 312.696 639.224 311.114 639.744 309.523L640.776 306.36C641.296 304.769 642.501 303.69 643.642 303.795L649.688 304.35C650.359 304.411 650.904 304.886 651.185 305.651C651.464 306.523 651.451 307.463 651.146 308.327V308.327Z" fill="#010101"/>
<path d="M524.626 240.388L518.551 258.999L645.563 300.463L651.638 281.853L524.626 240.388Z" fill="#E6E6E6"/>
<path d="M582.873 269.513L578.308 267.981L578.704 266.781L583.254 268.309L649.505 290.764L649.113 291.965" fill="#010101"/>
<path d="M595.531 250.594L590.966 249.061L591.362 247.862L595.912 249.389L662.163 271.845L661.771 273.046" fill="#010101"/>
<path d="M537.434 240.87L529.202 266.087C526.415 265.582 514.336 260.631 512.393 257.402L509.336 255.615L515.02 238.204L518.537 238.443C521.528 236.72 534.298 239.843 537.434 240.87Z" fill="#E6E6E6"/>
<path d="M515.601 237.799L509.736 255.767C509.519 256.43 508.981 256.849 508.533 256.703C508.468 256.681 508.408 256.649 508.354 256.608L500.828 250.802C500.506 250.554 500.406 249.987 500.587 249.432L504.477 237.516C504.659 236.961 505.073 236.562 505.48 236.551L514.982 236.305C515.468 236.292 515.777 236.832 515.671 237.511C515.655 237.609 515.632 237.705 515.601 237.799V237.799Z" fill="#E6E6E6"/>
<path d="M578.997 278.532C578.871 278.668 578.729 278.789 578.574 278.891C578.362 279.041 578.118 279.14 577.862 279.182C577.606 279.223 577.343 279.205 577.095 279.13L553.452 271.411C552.473 271.091 551.997 269.851 552.39 268.646L557.641 252.561C558.034 251.356 559.151 250.636 560.13 250.956L583.773 258.674C584.018 258.76 584.241 258.9 584.423 259.085C584.606 259.269 584.743 259.493 584.826 259.74C585.021 260.289 585.024 260.888 584.835 261.439L579.583 277.524C579.464 277.899 579.263 278.243 578.997 278.532Z" fill="#010101"/>
<path d="M582.927 279.326L576.851 297.937L639.685 318.45L645.761 299.839L582.927 279.326Z" fill="#E6E6E6"/>
<path d="M512.007 243.101L510.226 248.559C509.882 249.612 508.389 250.073 506.897 249.586C505.406 249.099 504.472 247.846 504.816 246.793L506.598 241.335C506.942 240.282 508.435 239.821 509.926 240.308C511.418 240.795 512.351 242.048 512.007 243.101Z" fill="#010101"/>
<path d="M563.339 282.827C562.205 286.31 567.232 291.072 569.583 291.841L573.84 293.231L577.955 280.623L573.698 279.234C571.347 278.467 564.478 279.346 563.339 282.827Z" fill="#010101"/>
<path d="M620.556 252.14C620.343 252.791 619.88 253.33 619.27 253.639C618.66 253.949 617.952 254.004 617.301 253.793L610.374 251.531C609.724 251.318 609.185 250.856 608.876 250.246C608.566 249.636 608.512 248.928 608.724 248.278C608.936 247.627 609.398 247.088 610.008 246.778C610.617 246.468 611.325 246.413 611.976 246.624L618.903 248.886C619.553 249.099 620.093 249.561 620.402 250.171C620.712 250.781 620.767 251.49 620.556 252.14V252.14Z" fill="#010101"/>
<path d="M602.702 306.905C602.489 307.555 602.026 308.094 601.416 308.404C600.806 308.714 600.098 308.769 599.447 308.557L592.52 306.296C591.87 306.083 591.331 305.62 591.022 305.01C590.712 304.4 590.658 303.692 590.87 303.042C591.082 302.392 591.544 301.853 592.154 301.543C592.763 301.233 593.471 301.177 594.122 301.389L601.049 303.65C601.699 303.863 602.239 304.326 602.548 304.936C602.858 305.546 602.913 306.254 602.702 306.905Z" fill="#010101"/>
<path d="M606.768 245.752L599.722 267.334C597.337 266.902 586.999 262.665 585.336 259.901L583.096 257.217L587.07 244.113L590.594 243.675C592.263 239.983 603.066 242.343 606.768 245.752Z" fill="#E6E6E6"/>
<path d="M599.765 252.29L597.983 257.748C597.64 258.801 595.755 259.134 593.784 258.491C591.812 257.847 590.487 256.466 590.831 255.413L592.613 249.955C592.957 248.902 594.841 248.569 596.813 249.213C598.784 249.856 600.109 251.237 599.765 252.29Z" fill="#010101"/>
<path d="M578.754 293.075L574.189 291.542L574.584 290.343L579.135 291.87L645.385 314.326L644.993 315.527" fill="#010101"/>
<path d="M594.939 281.235L587.894 302.817C584.675 303.969 574.004 300.365 573.508 295.384L571.268 292.7L575.241 279.596L578.766 279.158C581.326 277.683 592.255 280.356 594.939 281.235Z" fill="#E6E6E6"/>
<path d="M586.978 287.462L585.197 292.92C584.853 293.973 583.183 294.376 581.475 293.819C579.767 293.261 578.657 291.95 579 290.897L580.782 285.439C581.126 284.386 582.796 283.983 584.504 284.541C586.212 285.098 587.322 286.409 586.978 287.462Z" fill="#010101"/>
<path d="M628.179 254.352L640.396 246.573L658.615 251.804L649.116 262.825L628.179 254.352Z" fill="#E6E6E6"/>
<path d="M588.3 261.416L599.21 261.038L643.568 275.604L643.387 280.369L588.3 261.416Z" fill="#CCCCCC"/>
<path d="M581.975 278.461L590.36 285.451L634.327 301.157L637.107 297.282L581.975 278.461Z" fill="#CCCCCC"/>
<path d="M613.833 308.859L617.721 322.81L634.769 331.095L635.07 316.549L613.833 308.859Z" fill="#E6E6E6"/>
</svg>
