<svg width="582" height="675" viewBox="0 0 582 675" fill="none" xmlns="http://www.w3.org/2000/svg">
<path d="M355 431.681H356.822V429.859H357.178V431.681H359V432.037H357.178V433.859H356.822V432.037H355V431.681Z" fill="#F2F2F2"/>
<path d="M354.128 229.048H357.003V287.112H354.128V229.048Z" fill="#E6E6E6"/>
<path d="M422.252 383.405L448.697 444.343L443.523 452.966L445.248 455.84L433.175 462.164V458.715L428.576 457.565L409.03 421.922L422.252 383.405Z" fill="#E6E6E6"/>
<path d="M442.948 455.266C442.948 455.266 462.494 485.735 440.649 490.334C418.803 494.933 436.625 458.14 436.625 458.14L442.948 455.266Z" fill="#E6E6E6"/>
<path d="M414.779 441.468L421.678 463.889L424.552 492.633L429.726 502.981L423.977 549.547L414.779 558.745L410.755 604.736V625.432L399.832 644.403L413.898 664.367C414.561 665.305 414.958 666.406 415.047 667.551C415.135 668.697 414.912 669.845 414.4 670.874C413.888 671.903 413.107 672.773 412.14 673.394C411.173 674.015 410.056 674.362 408.907 674.398C405.802 674.48 401.708 673.602 396.383 670.848C379.711 662.224 380.286 654.176 380.286 654.176C380.286 654.176 369.938 654.176 369.363 646.128C368.788 638.079 375.687 580.591 375.687 580.591L382.011 555.871V488.609H379.711L378.561 546.098L373.387 567.368L372.812 576.566L365.339 668.548C365.339 668.548 331.996 677.746 330.271 670.273C328.546 662.799 342.918 658.2 342.918 658.2L334.295 641.529V609.335L337.169 602.436L342.344 555.871L333.72 546.672L329.121 540.924V494.933L334.87 477.111L336.595 462.164L345.793 439.169C345.793 439.169 387.759 425.372 414.779 441.468Z" fill="white"/>
<path d="M340.044 311.544C340.044 318.459 341.685 325.276 344.832 331.433C347.979 337.59 352.543 342.912 358.149 346.961C363.754 351.011 370.24 353.672 377.074 354.726C383.908 355.78 390.895 355.197 397.46 353.025C404.024 350.853 409.98 347.154 414.837 342.231C419.693 337.309 423.312 331.304 425.396 324.711C427.479 318.117 427.968 311.123 426.822 304.304C425.676 297.485 422.928 291.035 418.803 285.485L418.791 285.473C413.311 278.101 405.647 272.645 396.888 269.878C388.129 267.112 378.72 267.177 370 270.064C361.28 272.951 353.692 278.513 348.314 285.96C342.936 293.406 340.042 302.359 340.044 311.544V311.544Z" fill="#D16AFF"/>
<g opacity="0.1">
<path opacity="0.1" d="M346.253 293.43L349.817 313.844C376.601 244.317 419.206 287.025 419.941 287.773C415.538 281.851 409.707 277.141 402.991 274.083C396.276 271.024 388.895 269.716 381.537 270.281C374.179 270.846 367.085 273.265 360.915 277.313C354.745 281.361 349.701 286.905 346.253 293.43V293.43Z" fill="black"/>
</g>
<path d="M345.103 291.13L348.667 311.544C375.451 242.018 418.056 284.726 418.792 285.473C414.388 279.552 408.557 274.842 401.841 271.783C395.126 268.724 387.745 267.416 380.387 267.981C373.03 268.546 365.935 270.965 359.765 275.013C353.595 279.061 348.551 284.606 345.103 291.13V291.13Z" fill="white"/>
<path d="M351.092 282.512L345.103 303.302C345.103 303.302 357.535 340.566 415.189 341.864L417.078 347.187L423.402 348.912L426.276 360.985L418.228 437.444C418.228 437.444 421.677 444.918 415.928 444.343C415.928 444.343 377.986 431.695 345.218 443.193C345.218 443.193 338.319 446.068 340.044 439.744C340.044 439.744 317.048 425.372 318.773 410.425C320.497 395.478 317.048 325.917 317.048 325.917C317.048 325.917 313.599 305.796 323.947 301.196C323.947 301.196 339.145 279.924 351.092 282.512Z" fill="white"/>
<path d="M363.696 427.777C363.696 427.777 399.714 431.394 389.744 451.368C379.773 471.342 362.019 434.517 362.019 434.517L363.696 427.777Z" fill="#E6E6E6"/>
<path d="M345.218 338.564C345.218 338.564 351.541 346.038 349.242 358.11C346.942 370.183 338.319 397.202 338.319 397.202L368.788 425.372L359.59 438.019L318.198 416.748L309 411C311.287 387.747 316.979 364.957 325.892 343.359L327.396 339.714C327.396 339.714 338.319 335.115 345.218 338.564Z" fill="#E6E6E6"/>
<path d="M348.092 318.156C342.218 318.156 337.457 313.394 337.457 307.52C337.457 301.646 342.218 296.885 348.092 296.885C353.966 296.885 358.728 301.646 358.728 307.52C358.728 313.394 353.966 318.156 348.092 318.156Z" fill="#E6E6E6"/>
<path d="M355.566 236.522C351.279 236.522 347.805 233.047 347.805 228.761C347.805 224.475 351.279 221 355.566 221C359.852 221 363.327 224.475 363.327 228.761C363.327 233.047 359.852 236.522 355.566 236.522Z" fill="#E6E6E6"/>
<path d="M264.795 603.322H266.617V601.5H266.973V603.322H268.795V603.678H266.973V605.5H266.617V603.678H264.795V603.322Z" fill="#F2F2F2"/>
<path d="M0 558.322H1.82199V556.5H2.17801V558.322H4V558.678H2.17801V560.5H1.82199V558.678H0V558.322Z" fill="#F2F2F2"/>
<path d="M88.0422 317.195C88.0422 596.239 123.131 596.239 166.402 596.239C188.773 596.239 208.955 596.239 223.227 557.693C227.331 546.615 230.956 532.33 233.994 513.943C240.837 472.61 244.761 410.496 244.761 317.194C244.761 281.317 240.514 246.144 233.994 213.293C230.86 197.478 227.199 182.213 223.227 167.653C218.37 149.828 213.047 133.067 207.675 117.73C204.074 107.418 200.437 97.7396 196.908 88.803C180.602 47.5536 166.402 22 166.402 22C166.402 22 88.0422 163.083 88.0422 317.195Z" fill="#F2F2F2"/>
<g opacity="0.1">
<path opacity="0.1" d="M196.908 88.8032V575.303H207.675V117.731C204.074 107.418 200.437 97.7399 196.908 88.8032Z" fill="black"/>
</g>
<path d="M168.794 257.677C145.009 257.677 125.727 238.395 125.727 214.609C125.727 190.824 145.009 171.542 168.794 171.542C192.58 171.542 211.862 190.824 211.862 214.609C211.862 238.395 192.58 257.677 168.794 257.677Z" fill="#3F3D56"/>
<path d="M74.2845 569.919C83.8604 546.347 96.1558 542.281 104.193 542.634V538.814H229.807V542.634C237.844 542.281 250.14 546.347 259.716 569.919C275.268 608.202 250.145 674 250.145 674C250.145 674 263.571 582.233 218.987 581.629C215.126 586.665 210.387 590.964 205 594.318V619H133V596.566C125.962 592.996 119.815 587.891 115.013 581.629C70.4289 582.233 83.8551 674 83.8551 674C83.8551 674 58.7322 608.202 74.2845 569.919Z" fill="#D16AFF"/>
<path d="M168.794 248.106C150.294 248.106 135.297 233.109 135.297 214.609C135.297 196.109 150.294 181.112 168.794 181.112C187.295 181.112 202.292 196.109 202.292 214.609C202.292 233.109 187.295 248.106 168.794 248.106Z" fill="#D16AFF"/>
<path d="M460.021 171.958C413.64 171.958 376.042 134.36 376.042 87.9792C376.042 41.5988 413.64 4 460.021 4C506.401 4 544 41.5988 544 87.9792C544 134.36 506.401 171.958 460.021 171.958Z" fill="#FF6584"/>
<path d="M367.07 143C370.932 143 375.164 142.789 379.768 142.368C403.578 140.183 434.42 132.589 466.612 120.984C498.803 109.38 528.499 95.1506 550.228 80.9187C560.813 73.9856 568.937 67.423 574.374 61.4128C580.131 55.05 582.648 49.5038 581.858 44.9289C580.319 36.0162 566.686 34.0662 555.521 34L555.517 35.2961C570.85 35.3871 579.895 38.9196 580.988 45.2428C582.379 53.2962 571.033 65.8691 549.858 79.7381C528.176 93.9388 498.535 108.141 466.394 119.727C434.254 131.313 403.469 138.894 379.711 141.074C356.509 143.203 342.403 139.805 341.012 131.751C339.857 125.064 347.472 115.214 362.453 104.014L362.04 102.863C351.155 111.001 338.519 122.673 340.142 132.065C340.932 136.64 344.958 139.827 352.109 141.537C356.185 142.511 361.192 143 367.07 143Z" fill="white"/>
<path d="M276.483 88.9661C286.139 88.9661 293.966 81.1387 293.966 71.483C293.966 61.8274 286.139 54 276.483 54C266.827 54 259 61.8274 259 71.483C259 81.1387 266.827 88.9661 276.483 88.9661Z" fill="#E6E6E6"/>
<path d="M526.483 228.966C536.139 228.966 543.966 221.139 543.966 211.483C543.966 201.827 536.139 194 526.483 194C516.827 194 509 201.827 509 211.483C509 221.139 516.827 228.966 526.483 228.966Z" fill="#6C63FF"/>
<path d="M560.163 4.32614C561.358 4.32614 562.326 3.35772 562.326 2.16309C562.326 0.968455 561.358 0 560.163 0C558.968 0 558 0.968455 558 2.16309C558 3.35772 558.968 4.32614 560.163 4.32614Z" fill="#F0F0F0"/>
<path d="M291.163 150.326C292.358 150.326 293.326 149.358 293.326 148.163C293.326 146.968 292.358 146 291.163 146C289.968 146 289 146.968 289 148.163C289 149.358 289.968 150.326 291.163 150.326Z" fill="#F0F0F0"/>
<path d="M355.163 26.3261C356.358 26.3261 357.326 25.3577 357.326 24.1631C357.326 22.9685 356.358 22 355.163 22C353.968 22 353 22.9685 353 24.1631C353 25.3577 353.968 26.3261 355.163 26.3261Z" fill="#F0F0F0"/>
<path d="M564.163 148.326C565.358 148.326 566.326 147.358 566.326 146.163C566.326 144.968 565.358 144 564.163 144C562.968 144 562 144.968 562 146.163C562 147.358 562.968 148.326 564.163 148.326Z" fill="#F0F0F0"/>
<path d="M86.1631 38.3261C87.3577 38.3261 88.3261 37.3577 88.3261 36.1631C88.3261 34.9685 87.3577 34 86.1631 34C84.9685 34 84 34.9685 84 36.1631C84 37.3577 84.9685 38.3261 86.1631 38.3261Z" fill="#F0F0F0"/>
<path d="M199.163 8.32614C200.358 8.32614 201.326 7.35772 201.326 6.16309C201.326 4.96846 200.358 4 199.163 4C197.968 4 197 4.96846 197 6.16309C197 7.35772 197.968 8.32614 199.163 8.32614Z" fill="#F0F0F0"/>
<path d="M71.1631 143.326C72.3577 143.326 73.3261 142.358 73.3261 141.163C73.3261 139.968 72.3577 139 71.1631 139C69.9685 139 69 139.968 69 141.163C69 142.358 69.9685 143.326 71.1631 143.326Z" fill="#F0F0F0"/>
<path d="M269.163 268.326C270.358 268.326 271.326 267.358 271.326 266.163C271.326 264.968 270.358 264 269.163 264C267.968 264 267 264.968 267 266.163C267 267.358 267.968 268.326 269.163 268.326Z" fill="#F0F0F0"/>
<path d="M476.163 367.326C477.358 367.326 478.326 366.358 478.326 365.163C478.326 363.968 477.358 363 476.163 363C474.968 363 474 363.968 474 365.163C474 366.358 474.968 367.326 476.163 367.326Z" fill="#F0F0F0"/>
<path d="M556.163 316.326C557.358 316.326 558.326 315.358 558.326 314.163C558.326 312.968 557.358 312 556.163 312C554.968 312 554 312.968 554 314.163C554 315.358 554.968 316.326 556.163 316.326Z" fill="#F0F0F0"/>
<path d="M511.163 448.326C512.358 448.326 513.326 447.358 513.326 446.163C513.326 444.968 512.358 444 511.163 444C509.968 444 509 444.968 509 446.163C509 447.358 509.968 448.326 511.163 448.326Z" fill="#F0F0F0"/>
<path d="M466.163 580.326C467.358 580.326 468.326 579.358 468.326 578.163C468.326 576.968 467.358 576 466.163 576C464.968 576 464 576.968 464 578.163C464 579.358 464.968 580.326 466.163 580.326Z" fill="#F0F0F0"/>
<path d="M257.163 523.326C258.358 523.326 259.326 522.358 259.326 521.163C259.326 519.968 258.358 519 257.163 519C255.968 519 255 519.968 255 521.163C255 522.358 255.968 523.326 257.163 523.326Z" fill="#F0F0F0"/>
<path d="M307.163 473.326C308.358 473.326 309.326 472.358 309.326 471.163C309.326 469.968 308.358 469 307.163 469C305.968 469 305 469.968 305 471.163C305 472.358 305.968 473.326 307.163 473.326Z" fill="#F0F0F0"/>
<path d="M67.1631 495.326C68.3577 495.326 69.3261 494.358 69.3261 493.163C69.3261 491.968 68.3577 491 67.1631 491C65.9685 491 65 491.968 65 493.163C65 494.358 65.9685 495.326 67.1631 495.326Z" fill="#F0F0F0"/>
<path d="M311.163 608.326C312.358 608.326 313.326 607.358 313.326 606.163C313.326 604.968 312.358 604 311.163 604C309.968 604 309 604.968 309 606.163C309 607.358 309.968 608.326 311.163 608.326Z" fill="#F0F0F0"/>
<path d="M542.163 612.326C543.358 612.326 544.326 611.358 544.326 610.163C544.326 608.968 543.358 608 542.163 608C540.968 608 540 608.968 540 610.163C540 611.358 540.968 612.326 542.163 612.326Z" fill="#F0F0F0"/>
<path d="M546.163 499.326C547.358 499.326 548.326 498.358 548.326 497.163C548.326 495.968 547.358 495 546.163 495C544.968 495 544 495.968 544 497.163C544 498.358 544.968 499.326 546.163 499.326Z" fill="#F0F0F0"/>
<path d="M480.163 634.326C481.358 634.326 482.326 633.358 482.326 632.163C482.326 630.968 481.358 630 480.163 630C478.968 630 478 630.968 478 632.163C478 633.358 478.968 634.326 480.163 634.326Z" fill="#F0F0F0"/>
<path d="M287.163 371.326C288.358 371.326 289.326 370.358 289.326 369.163C289.326 367.968 288.358 367 287.163 367C285.968 367 285 367.968 285 369.163C285 370.358 285.968 371.326 287.163 371.326Z" fill="#F0F0F0"/>
<path d="M73.1631 363.326C74.3577 363.326 75.3261 362.358 75.3261 361.163C75.3261 359.968 74.3577 359 73.1631 359C71.9685 359 71 359.968 71 361.163C71 362.358 71.9685 363.326 73.1631 363.326Z" fill="#F0F0F0"/>
<path d="M440.163 231.326C441.358 231.326 442.326 230.358 442.326 229.163C442.326 227.968 441.358 227 440.163 227C438.968 227 438 227.968 438 229.163C438 230.358 438.968 231.326 440.163 231.326Z" fill="#F0F0F0"/>
</svg>
