<svg width="864" height="736" viewBox="0 0 864 736" fill="none" xmlns="http://www.w3.org/2000/svg">
<path d="M432.01 592C670.096 592 863.191 656.201 864 735.5H0.0189819C0.828592 656.201 193.923 592 432.01 592Z" fill="#F2F2F2"/>
<path d="M480.008 421.681H481.83V419.859H482.186V421.681H484.008V422.037H482.186V423.859H481.83V422.037H480.008V421.681Z" fill="#F2F2F2"/>
<path d="M479.136 219.048H482.011V277.112H479.136V219.048Z" fill="#E6E6E6"/>
<path d="M547.26 373.405L573.705 434.343L568.531 442.966L570.256 445.84L558.183 452.164V448.715L553.584 447.565L534.038 411.922L547.26 373.405Z" fill="#E6E6E6"/>
<path d="M567.956 445.266C567.956 445.266 587.502 475.735 565.657 480.334C543.811 484.933 561.632 448.14 561.632 448.14L567.956 445.266Z" fill="#E6E6E6"/>
<path d="M539.787 431.468L546.685 453.889L549.56 482.633L554.734 492.981L548.985 539.547L539.787 548.745L535.763 594.736V615.432L524.84 634.403L538.906 654.367C539.569 655.305 539.966 656.406 540.055 657.551C540.143 658.697 539.919 659.845 539.408 660.874C538.896 661.903 538.115 662.773 537.148 663.394C536.181 664.015 535.064 664.362 533.915 664.398C530.81 664.48 526.716 663.602 521.391 660.848C504.719 652.224 505.294 644.176 505.294 644.176C505.294 644.176 494.946 644.176 494.371 636.128C493.796 628.079 500.695 570.591 500.695 570.591L507.018 545.871V478.609H504.719L503.569 536.098L498.395 557.368L497.82 566.566L490.347 658.548C490.347 658.548 457.003 667.746 455.279 660.273C453.554 652.799 467.926 648.2 467.926 648.2L459.303 631.529V599.335L462.177 592.436L467.351 545.871L458.728 536.672L454.129 530.924V484.933L459.878 467.111L461.602 452.164L470.801 429.169C470.801 429.169 512.767 415.372 539.787 431.468Z" fill="white"/>
<path d="M465.052 301.544C465.051 308.459 466.692 315.276 469.84 321.433C472.987 327.59 477.551 332.912 483.156 336.961C488.762 341.011 495.248 343.672 502.082 344.726C508.916 345.78 515.903 345.197 522.467 343.025C529.032 340.853 534.988 337.154 539.844 332.231C544.701 327.309 548.32 321.304 550.403 314.711C552.487 308.117 552.976 301.123 551.83 294.304C550.684 287.485 547.935 281.035 543.811 275.485L543.799 275.473C538.319 268.101 530.655 262.645 521.896 259.878C513.136 257.112 503.728 257.177 495.008 260.064C486.288 262.951 478.7 268.513 473.322 275.96C467.944 283.406 465.05 292.359 465.052 301.544V301.544Z" fill="#D16AFF"/>
<g opacity="0.1">
<path opacity="0.1" d="M471.26 283.43L474.825 303.844C501.609 234.317 544.213 277.025 544.949 277.773C540.546 271.851 534.715 267.141 527.999 264.083C521.283 261.024 513.903 259.716 506.545 260.281C499.187 260.846 492.092 263.265 485.922 267.313C479.753 271.361 474.708 276.905 471.26 283.43V283.43Z" fill="black"/>
</g>
<path d="M470.111 281.13L473.675 301.544C500.459 232.018 543.063 274.726 543.799 275.473C539.396 269.552 533.565 264.842 526.849 261.783C520.134 258.724 512.753 257.416 505.395 257.981C498.037 258.546 490.943 260.965 484.773 265.013C478.603 269.061 473.558 274.606 470.111 281.13V281.13Z" fill="white"/>
<path d="M476.1 272.512L470.11 293.302C470.11 293.302 482.543 330.566 540.196 331.864L542.086 337.187L548.41 338.912L551.284 350.985L543.236 427.444C543.236 427.444 546.685 434.918 540.936 434.343C540.936 434.343 502.994 421.695 470.225 433.193C470.225 433.193 463.327 436.068 465.051 429.744C465.051 429.744 442.056 415.372 443.781 400.425C445.505 385.478 442.056 315.917 442.056 315.917C442.056 315.917 438.607 295.796 448.955 291.196C448.955 291.196 464.153 269.924 476.1 272.512Z" fill="white"/>
<path d="M488.704 417.777C488.704 417.777 524.722 421.394 514.751 441.368C504.781 461.342 487.026 424.517 487.026 424.517L488.704 417.777Z" fill="#E6E6E6"/>
<path d="M470.226 328.564C470.226 328.564 476.549 336.038 474.25 348.11C471.95 360.183 463.327 387.202 463.327 387.202L493.796 415.372L484.598 428.019L443.206 406.748L434.008 401C436.295 377.747 441.986 354.957 450.9 333.359L452.404 329.714C452.404 329.714 463.327 325.115 470.226 328.564Z" fill="#E6E6E6"/>
<path d="M473.1 308.156C467.226 308.156 462.465 303.394 462.465 297.52C462.465 291.646 467.226 286.885 473.1 286.885C478.974 286.885 483.735 291.646 483.735 297.52C483.735 303.394 478.974 308.156 473.1 308.156Z" fill="#E6E6E6"/>
<path d="M480.574 226.522C476.287 226.522 472.813 223.047 472.813 218.761C472.813 214.475 476.287 211 480.574 211C484.86 211 488.334 214.475 488.334 218.761C488.334 223.047 484.86 226.522 480.574 226.522Z" fill="#E6E6E6"/>
<path d="M364 665.322H365.822V663.5H366.178V665.322H368V665.678H366.178V667.5H365.822V665.678H364V665.322Z" fill="#F2F2F2"/>
<path d="M99.2048 620.322H101.027V618.5H101.383V620.322H103.205V620.678H101.383V622.5H101.027V620.678H99.2048V620.322Z" fill="#F2F2F2"/>
<path d="M187.247 379.195C187.247 658.239 222.335 658.239 265.607 658.239C287.978 658.239 308.16 658.239 322.432 619.693C326.536 608.615 330.161 594.33 333.199 575.943C340.042 534.61 343.966 472.496 343.966 379.194C343.966 343.317 339.719 308.144 333.199 275.293C330.065 259.478 326.404 244.213 322.432 229.653C317.575 211.828 312.252 195.067 306.88 179.73C303.279 169.418 299.642 159.74 296.113 150.803C279.807 109.554 265.607 84 265.607 84C265.607 84 187.247 225.083 187.247 379.195Z" fill="#F2F2F2"/>
<g opacity="0.1">
<path opacity="0.1" d="M296.113 150.803V637.303H306.88V179.731C303.279 169.418 299.642 159.74 296.113 150.803Z" fill="black"/>
</g>
<path d="M267.999 319.677C244.214 319.677 224.931 300.395 224.931 276.609C224.931 252.824 244.214 233.542 267.999 233.542C291.785 233.542 311.067 252.824 311.067 276.609C311.067 300.395 291.785 319.677 267.999 319.677Z" fill="#3F3D56"/>
<path d="M173.489 631.919C183.065 608.347 195.361 604.281 203.398 604.634V600.814H329.012V604.634C337.049 604.281 349.345 608.347 358.92 631.919C374.473 670.202 349.35 736 349.35 736C349.35 736 362.776 644.233 318.192 643.629C314.33 648.665 309.592 652.964 304.205 656.318V681H232.205V658.566C225.167 654.996 219.02 649.891 214.218 643.629C169.634 644.233 183.06 736 183.06 736C183.06 736 157.937 670.202 173.489 631.919Z" fill="#D16AFF"/>
<path d="M267.999 310.106C249.499 310.106 234.502 295.109 234.502 276.609C234.502 258.109 249.499 243.112 267.999 243.112C286.499 243.112 301.497 258.109 301.497 276.609C301.497 295.109 286.499 310.106 267.999 310.106Z" fill="#D16AFF"/>
<path d="M120.021 167.958C73.6404 167.958 36.0417 130.36 36.0417 83.9792C36.0417 37.5988 73.6404 0 120.021 0C166.401 0 204 37.5988 204 83.9792C204 130.36 166.401 167.958 120.021 167.958Z" fill="#FF6584"/>
<path d="M27.07 139C30.9317 139 35.1643 138.789 39.7677 138.368C63.5781 136.183 94.4199 128.589 126.612 116.984C158.803 105.38 188.499 91.1506 210.228 76.9187C220.813 69.9856 228.937 63.423 234.374 57.4128C240.131 51.05 242.648 45.5038 241.858 40.9289C240.319 32.0162 226.686 30.0662 215.521 30L215.517 31.2961C230.85 31.3871 239.895 34.9196 240.988 41.2428C242.379 49.2962 231.033 61.8691 209.858 75.7381C188.176 89.9388 158.535 104.141 126.394 115.727C94.2537 127.313 63.4687 134.894 39.7107 137.074C16.509 139.203 2.40327 135.805 1.01216 127.751C-0.142805 121.064 7.47161 111.214 22.4526 100.014L22.0402 98.8633C11.1548 107.001 -1.48061 118.673 0.141518 128.065C0.931848 132.64 4.95825 135.827 12.109 137.537C16.1852 138.511 21.1919 139 27.07 139Z" fill="white"/>
</svg>
